# xmcd
#
# Track frame offsets:
#	150
#	12127
#	22129
#	32664
#	44592
#	55105
#	65763
#	76872
#	91263
#	102862
#	114845
#	123585
#	132180
#	142188
#	151285
#	161597
#	175198
#	190090
#	203581
#	215225
#	227504
#	247026
#	259050
#	271440
#	273178
#	284534
#	296376
#	307403
#	318733
#	330230
#	340775
# Disc length: 4697 seconds
# Revision: 1
# Processed by: cddbd v1.5.2PL0 Copyright (c) Steve Scherf et al.
#
# Submitted via: libkcddb 0.31
#
DISCID=cb12571f
DTITLE=Lester Flatt and Earl Scruggs - Anthology Bluegrass 3
DYEAR=1900
DGENRE=Bluegrass
TTITLE0=Rose Conelly
TTITLE1=Branded Wherever I Go
TTITLE2=Foggy Mountain Breakdown
TTITLE3=Ten Miles from Natchez
TTITLE4=Houston
TTITLE5=Memphis
TTITLE6=Kansas City
TTITLE7=The Last Public Hanging in West Virginia
TTITLE8=Jackson
TTITLE9=The Boys from Tennessee
TTITLE10=Nashville Blues
TTITLE11=Take Me Back to Tulsa
TTITLE12=Detroit City
TTITLE13=Seattle Town
TTITLE14=Down in the Flood
TTITLE15=Mr. Tambourine Man
TTITLE16=Don't Think Twice, It's All Right
TTITLE17=Where Have All the Flowers Gone?
TTITLE18=Blowin' in the Wind
TTITLE19=It Ain't Me Babe
TTITLE20=Ode to Billie Joe
TTITLE21=Four Strong Winds
TTITLE22=Buddy, Don't You Roll So Slow
TTITLE23=This Land Is Your Land
TTITLE24=Cabin on The Hill
TTITLE25=Heaven
TTITLE26=Joy Bells
TTITLE27=You Can Feel It In Your Soul
TTITLE28=Who Will Sing For Me
TTITLE29=Is There Room For Me
TTITLE30=It Won't Be Long
EXTD=CD 3 of 4
EXTT0=
EXTT1=
EXTT2=
EXTT3=
EXTT4=
EXTT5=
EXTT6=
EXTT7=
EXTT8=
EXTT9=
EXTT10=
EXTT11=
EXTT12=
EXTT13=
EXTT14=
EXTT15=
EXTT16=
EXTT17=
EXTT18=
EXTT19=
EXTT20=
EXTT21=
EXTT22=
EXTT23=
EXTT24=
EXTT25=
EXTT26=
EXTT27=
EXTT28=
EXTT29=
EXTT30=
PLAYORDER=
